<?xml version="1.0" ?><svg id="Layer_1" style="enable-background:new 0 0 128 128;" version="1.1" viewBox="0 0 128 128" xml:space="preserve" xmlns="http://www.w3.org/2000/svg" xmlns:xlink="http://www.w3.org/1999/xlink"><style type="text/css">
	.st0{fill:#FF5050;}
	.st1{fill:#FFFFFF;}
	.st2{fill:#9B0270;}
	.st3{fill:#FFD952;}
	.st4{fill:#FF9D00;}
	.st5{fill:#DFE8F4;}
	.st6{fill:#52EFBB;}
	.st7{fill:#33BC8B;}
	.st8{fill:#0795FF;}
	.st9{fill:#500599;}
	.st10{fill:#4D28A8;}
	.st11{fill:#35DC86;}
	.st12{fill:#27A88F;}
</style><g><circle class="st5" cx="61" cy="67" r="60"/></g><g><path class="st6" d="M116.6,89.5c6.2,3.4,10.4,10,10.4,17.5c0,11-9,20-20,20c-6.6,0-12.4-3.2-16-8L116.6,89.5z"/></g><g><path class="st7" d="M116.6,89.5c-2.9-1.6-6.1-2.5-9.6-2.5c-11,0-20,9-20,20c0,4.5,1.5,8.6,4,12   C102.5,112.3,111.6,101.9,116.6,89.5z"/></g><g><polygon class="st1" points="66,62 66,32 56,32 56,72 96,72 96,62  "/></g></svg>